<?xml version="1.0" encoding="UTF-8" standalone="no"?><svg xmlns="http://www.w3.org/2000/svg" xmlns:xlink="http://www.w3.org/1999/xlink" height="586" version="1.1" width="701.80078125"><defs/><g><g transform="translate(-606,-142) scale(1,1)"><rect fill="#C0C0C0" height="250" opacity="0.2" stroke="none" width="178.482421875" x="823" y="207"/></g><g transform="translate(-606,-142) scale(1,1)"><rect fill="#ffffff" height="250" stroke="none" width="178.482421875" x="816" y="200"/></g><g transform="translate(-606,-142) scale(1,1)"><path d="M 816 200 L 994.482421875 200 L 994.482421875 450 L 816 450 L 816 200 Z Z" fill="none" stroke="#000000" stroke-miterlimit="10"/></g><g transform="translate(-606,-142) scale(1,1)"><path d="M 816 225 L 994.482421875 225" fill="none" stroke="#000000" stroke-miterlimit="10"/></g><g transform="translate(-606,-142) scale(1,1)"><path d="M 816 383 L 994.482421875 383" fill="none" stroke="#000000" stroke-miterlimit="10"/></g><g transform="translate(-606,-142) scale(1,1)"><g><path fill="none" stroke="none"/><text fill="#000000" font-family="Arial" font-size="13px" font-style="normal" font-weight="bold" stroke="none" text-decoration="none" x="859.357177734375" y="219.5">PlatoonMember</text></g></g><g transform="translate(-606,-142) scale(1,1)"><g><path fill="none" stroke="none"/><text fill="#000000" font-family="Arial" font-size="13px" font-style="normal" font-weight="normal" stroke="none" text-decoration="none" x="821" y="242.5">+x: Float</text></g></g><g transform="translate(-606,-142) scale(1,1)"><g><path fill="none" stroke="none"/><text fill="#000000" font-family="Arial" font-size="13px" font-style="normal" font-weight="normal" stroke="none" text-decoration="none" x="821" y="257.5">+y: Float</text></g></g><g transform="translate(-606,-142) scale(1,1)"><g><path fill="none" stroke="none"/><text fill="#000000" font-family="Arial" font-size="13px" font-style="normal" font-weight="normal" stroke="none" text-decoration="none" x="821" y="272.5">+z: Float</text></g></g><g transform="translate(-606,-142) scale(1,1)"><g><path fill="none" stroke="none"/><text fill="#000000" font-family="Arial" font-size="13px" font-style="normal" font-weight="normal" stroke="none" text-decoration="none" x="821" y="287.5">+yaw: Float</text></g></g><g transform="translate(-606,-142) scale(1,1)"><g><path fill="none" stroke="none"/><text fill="#000000" font-family="Arial" font-size="13px" font-style="normal" font-weight="normal" stroke="none" text-decoration="none" x="821" y="302.5">+speed: Float</text></g></g><g transform="translate(-606,-142) scale(1,1)"><g><path fill="none" stroke="none"/><text fill="#000000" font-family="Arial" font-size="13px" font-style="normal" font-weight="normal" stroke="none" text-decoration="none" x="821" y="317.5">+throttle: Float</text></g></g><g transform="translate(-606,-142) scale(1,1)"><g><path fill="none" stroke="none"/><text fill="#000000" font-family="Arial" font-size="13px" font-style="normal" font-weight="normal" stroke="none" text-decoration="none" x="821" y="332.5">+steer: Float</text></g></g><g transform="translate(-606,-142) scale(1,1)"><g><path fill="none" stroke="none"/><text fill="#000000" font-family="Arial" font-size="13px" font-style="normal" font-weight="normal" stroke="none" text-decoration="none" x="821" y="347.5">+brake: Float</text></g></g><g transform="translate(-606,-142) scale(1,1)"><g><path fill="none" stroke="none"/><text fill="#000000" font-family="Arial" font-size="13px" font-style="normal" font-weight="normal" stroke="none" text-decoration="none" x="821" y="362.5">+waypoints: list&lt;list&lt;Float&gt;&gt;</text></g></g><g transform="translate(-606,-142) scale(1,1)"><g><path fill="none" stroke="none"/><text fill="#000000" font-family="Arial" font-size="13px" font-style="normal" font-weight="normal" stroke="none" text-decoration="none" x="821" y="377.5">+cloudconnection: SafeCloud</text></g></g><g transform="translate(-606,-142) scale(1,1)"><g><path fill="none" stroke="none"/><text fill="#000000" font-family="Arial" font-size="13px" font-style="normal" font-weight="normal" stroke="none" text-decoration="none" x="821" y="400.5">+update_position()</text></g></g><g transform="translate(-606,-142) scale(1,1)"><g><path fill="none" stroke="none"/><text fill="#000000" font-family="Arial" font-size="13px" font-style="normal" font-weight="normal" stroke="none" text-decoration="none" x="821" y="415.5">+get_pos()</text></g></g><g transform="translate(-606,-142) scale(1,1)"><g><path fill="none" stroke="none"/><text fill="#000000" font-family="Arial" font-size="13px" font-style="normal" font-weight="normal" stroke="none" text-decoration="none" x="821" y="430.5">+connect_to_cloud()</text></g></g><g transform="translate(-606,-142) scale(1,1)"><g><path fill="none" stroke="none"/><text fill="#000000" font-family="Arial" font-size="13px" font-style="normal" font-weight="normal" stroke="none" text-decoration="none" x="821" y="445.5">+add_waypoint()</text></g></g><g transform="translate(-606,-142) scale(1,1)"><rect fill="#C0C0C0" height="102" opacity="0.2" stroke="none" width="192" x="679" y="535"/></g><g transform="translate(-606,-142) scale(1,1)"><rect fill="#ffffff" height="102" stroke="none" width="192" x="672" y="528"/></g><g transform="translate(-606,-142) scale(1,1)"><path d="M 672 528 L 864 528 L 864 630 L 672 630 L 672 528 Z Z" fill="none" stroke="#000000" stroke-miterlimit="10"/></g><g transform="translate(-606,-142) scale(1,1)"><path d="M 672 553 L 864 553" fill="none" stroke="#000000" stroke-miterlimit="10"/></g><g transform="translate(-606,-142) scale(1,1)"><path d="M 672 578 L 864 578" fill="none" stroke="#000000" stroke-miterlimit="10"/></g><g transform="translate(-606,-142) scale(1,1)"><g><path fill="none" stroke="none"/><text fill="#000000" font-family="Arial" font-size="13px" font-style="normal" font-weight="bold" stroke="none" text-decoration="none" x="747.760498046875" y="547.5">Leader</text></g></g><g transform="translate(-606,-142) scale(1,1)"><g><path fill="none" stroke="none"/><text fill="#000000" font-family="Arial" font-size="13px" font-style="normal" font-weight="normal" stroke="none" text-decoration="none" x="677" y="572.5">+followers: list&lt;Follower&gt;</text></g></g><g transform="translate(-606,-142) scale(1,1)"><g><path fill="none" stroke="none"/><text fill="#000000" font-family="Arial" font-size="13px" font-style="normal" font-weight="normal" stroke="none" text-decoration="none" x="677" y="595.5">+add_follower(f: carla.Vehicle)</text></g></g><g transform="translate(-606,-142) scale(1,1)"><g><path fill="none" stroke="none"/><text fill="#000000" font-family="Arial" font-size="13px" font-style="normal" font-weight="normal" stroke="none" text-decoration="none" x="677" y="610.5">+update_follower()</text></g></g><g transform="translate(-606,-142) scale(1,1)"><g><path fill="none" stroke="none"/><text fill="#000000" font-family="Arial" font-size="13px" font-style="normal" font-weight="normal" stroke="none" text-decoration="none" x="677" y="625.5">+move()</text></g></g><g transform="translate(-606,-142) scale(1,1)"><rect fill="#C0C0C0" height="190" opacity="0.2" stroke="none" width="176" x="951" y="535"/></g><g transform="translate(-606,-142) scale(1,1)"><rect fill="#ffffff" height="190" stroke="none" width="176" x="944" y="528"/></g><g transform="translate(-606,-142) scale(1,1)"><path d="M 944 528 L 1120 528 L 1120 718 L 944 718 L 944 528 Z Z" fill="none" stroke="#000000" stroke-miterlimit="10"/></g><g transform="translate(-606,-142) scale(1,1)"><path d="M 944 553 L 1120 553" fill="none" stroke="#000000" stroke-miterlimit="10"/></g><g transform="translate(-606,-142) scale(1,1)"><path d="M 944 621 L 1120 621" fill="none" stroke="#000000" stroke-miterlimit="10"/></g><g transform="translate(-606,-142) scale(1,1)"><g><path fill="none" stroke="none"/><text fill="#000000" font-family="Arial" font-size="13px" font-style="normal" font-weight="bold" stroke="none" text-decoration="none" x="1007.437744140625" y="547.5">Follower</text></g></g><g transform="translate(-606,-142) scale(1,1)"><g><path fill="none" stroke="none"/><text fill="#000000" font-family="Arial" font-size="13px" font-style="normal" font-weight="normal" stroke="none" text-decoration="none" x="949" y="570.5">+leader: PlatoonMember</text></g></g><g transform="translate(-606,-142) scale(1,1)"><g><path fill="none" stroke="none"/><text fill="#000000" font-family="Arial" font-size="13px" font-style="normal" font-weight="normal" stroke="none" text-decoration="none" x="949" y="585.5">+leader_dist: Float</text></g></g><g transform="translate(-606,-142) scale(1,1)"><g><path fill="none" stroke="none"/><text fill="#000000" font-family="Arial" font-size="13px" font-style="normal" font-weight="normal" stroke="none" text-decoration="none" x="949" y="600.5">+safe_dist: Float</text></g></g><g transform="translate(-606,-142) scale(1,1)"><g><path fill="none" stroke="none"/><text fill="#000000" font-family="Arial" font-size="13px" font-style="normal" font-weight="normal" stroke="none" text-decoration="none" x="949" y="615.5">+big_dist: Bool</text></g></g><g transform="translate(-606,-142) scale(1,1)"><g><path fill="none" stroke="none"/><text fill="#000000" font-family="Arial" font-size="13px" font-style="normal" font-weight="normal" stroke="none" text-decoration="none" x="949" y="638.5">+update_position()</text></g></g><g transform="translate(-606,-142) scale(1,1)"><g><path fill="none" stroke="none"/><text fill="#000000" font-family="Arial" font-size="13px" font-style="normal" font-weight="normal" stroke="none" text-decoration="none" x="949" y="653.5">+set_speed_goal()</text></g></g><g transform="translate(-606,-142) scale(1,1)"><g><path fill="none" stroke="none"/><text fill="#000000" font-family="Arial" font-size="13px" font-style="normal" font-weight="normal" stroke="none" text-decoration="none" x="949" y="668.5">+check_lidar()</text></g></g><g transform="translate(-606,-142) scale(1,1)"><g><path fill="none" stroke="none"/><text fill="#000000" font-family="Arial" font-size="13px" font-style="normal" font-weight="normal" stroke="none" text-decoration="none" x="949" y="683.5">+define_throttle()</text></g></g><g transform="translate(-606,-142) scale(1,1)"><g><path fill="none" stroke="none"/><text fill="#000000" font-family="Arial" font-size="13px" font-style="normal" font-weight="normal" stroke="none" text-decoration="none" x="949" y="698.5">+define_steer()</text></g></g><g transform="translate(-606,-142) scale(1,1)"><g><path fill="none" stroke="none"/><text fill="#000000" font-family="Arial" font-size="13px" font-style="normal" font-weight="normal" stroke="none" text-decoration="none" x="949" y="713.5">+move()</text></g></g><g transform="translate(-606,-142) scale(1,1)"><path d="M 768 528 L 768 488 L 904 488 L 904 450" fill="none" stroke="#000000" stroke-miterlimit="10"/></g><g transform="translate(-606,-142) scale(1,1)"><path d="M 912.419035512032 470.3253497152483 L 904 450 L 895.580964487968 470.3253497152483" fill="#FFFFFF" stroke="none"/></g><g transform="translate(-606,-142) scale(1,1)"><path d="M 912.419035512032 470.3253497152483 L 904 450 L 895.580964487968 470.3253497152483 L 912.419035512032 470.3253497152483" fill="none" stroke="#000000" stroke-miterlimit="10"/></g><g transform="translate(-606,-142) scale(1,1)"><path d="M 1048 528 L 1048 488 L 904 488 L 904 450" fill="none" stroke="#000000" stroke-miterlimit="10"/></g><g transform="translate(-606,-142) scale(1,1)"><path d="M 912.419035512032 470.3253497152483 L 904 450 L 895.580964487968 470.3253497152483" fill="#FFFFFF" stroke="none"/></g><g transform="translate(-606,-142) scale(1,1)"><path d="M 912.419035512032 470.3253497152483 L 904 450 L 895.580964487968 470.3253497152483 L 912.419035512032 470.3253497152483" fill="none" stroke="#000000" stroke-miterlimit="10"/></g><g transform="translate(-606,-142) scale(1,1)"><path d="M 864 544 L 944 544" fill="none" stroke="#000000" stroke-dasharray="3" stroke-miterlimit="10"/></g><g transform="translate(-606,-142) scale(1,1)"><path d="M 933.8373251423759 548.209517756016 L 944 544 L 933.8373251423758 539.790482243984" fill="none" stroke="#000000" stroke-miterlimit="10"/></g><g transform="translate(-606,-142) scale(1,1)"><rect fill="#C0C0C0" height="130" opacity="0.2" stroke="none" width="161.80078125" x="1143" y="207"/></g><g transform="translate(-606,-142) scale(1,1)"><rect fill="#ffffff" height="130" stroke="none" width="161.80078125" x="1136" y="200"/></g><g transform="translate(-606,-142) scale(1,1)"><path d="M 1136 200 L 1297.80078125 200 L 1297.80078125 330 L 1136 330 L 1136 200 Z Z" fill="none" stroke="#000000" stroke-miterlimit="10"/></g><g transform="translate(-606,-142) scale(1,1)"><path d="M 1136 225 L 1297.80078125 225" fill="none" stroke="#000000" stroke-miterlimit="10"/></g><g transform="translate(-606,-142) scale(1,1)"><path d="M 1136 263 L 1297.80078125 263" fill="none" stroke="#000000" stroke-miterlimit="10"/></g><g transform="translate(-606,-142) scale(1,1)"><g><path fill="none" stroke="none"/><text fill="#000000" font-family="Arial" font-size="13px" font-style="normal" font-weight="bold" stroke="none" text-decoration="none" x="1186.5458984375" y="219.5">SafeCloud</text></g></g><g transform="translate(-606,-142) scale(1,1)"><g><path fill="none" stroke="none"/><text fill="#000000" font-family="Arial" font-size="13px" font-style="normal" font-weight="normal" stroke="none" text-decoration="none" x="1141" y="242.5">+leader: Leader</text></g></g><g transform="translate(-606,-142) scale(1,1)"><g><path fill="none" stroke="none"/><text fill="#000000" font-family="Arial" font-size="13px" font-style="normal" font-weight="normal" stroke="none" text-decoration="none" x="1141" y="257.5">+members: list&lt;Follower&gt;</text></g></g><g transform="translate(-606,-142) scale(1,1)"><g><path fill="none" stroke="none"/><text fill="#000000" font-family="Arial" font-size="13px" font-style="normal" font-weight="normal" stroke="none" text-decoration="none" x="1141" y="280.5">+set_leader()</text></g></g><g transform="translate(-606,-142) scale(1,1)"><g><path fill="none" stroke="none"/><text fill="#000000" font-family="Arial" font-size="13px" font-style="normal" font-weight="normal" stroke="none" text-decoration="none" x="1141" y="295.5">+add_members()</text></g></g><g transform="translate(-606,-142) scale(1,1)"><g><path fill="none" stroke="none"/><text fill="#000000" font-family="Arial" font-size="13px" font-style="normal" font-weight="normal" stroke="none" text-decoration="none" x="1141" y="310.5">+retrieve_check_data()</text></g></g><g transform="translate(-606,-142) scale(1,1)"><g><path fill="none" stroke="none"/><text fill="#000000" font-family="Arial" font-size="13px" font-style="normal" font-weight="normal" stroke="none" text-decoration="none" x="1141" y="325.5">+check_action()</text></g></g><g transform="translate(-606,-142) scale(1,1)"><rect fill="#C0C0C0" height="15" opacity="0.2" stroke="none" width="41.60000000000002" x="623" y="159"/></g><g transform="translate(-606,-142) scale(1,1)"><rect fill="#C0C0C0" height="90" opacity="0.2" stroke="none" width="104" x="623" y="173"/></g><g transform="translate(-606,-142) scale(1,1)"><rect fill="#ffffff" height="89" stroke="none" width="104" x="616" y="167"/></g><g transform="translate(-606,-142) scale(1,1)"><path d="M 616 167 L 720 167 L 720 256 L 616 256 L 616 167 Z Z" fill="none" stroke="#000000" stroke-miterlimit="10"/></g><g transform="translate(-606,-142) scale(1,1)"><rect fill="#ffffff" height="15" stroke="none" width="41.60000000000002" x="616" y="152"/></g><g transform="translate(-606,-142) scale(1,1)"><path d="M 616 152 L 657.6 152 L 657.6 167 L 616 167 L 616 152 Z Z" fill="none" stroke="#000000" stroke-miterlimit="10"/></g><g transform="translate(-606,-142) scale(1,1)"><rect fill="#ffffff" height="90" stroke="none" width="104" x="616" y="166"/></g><g transform="translate(-606,-142) scale(1,1)"><path d="M 616 166 L 720 166 L 720 256 L 616 256 L 616 166 Z Z" fill="none" stroke="#000000" stroke-miterlimit="10"/></g><g transform="translate(-606,-142) scale(1,1)"><g><path fill="none" stroke="none"/><text fill="#000000" font-family="Arial" font-size="13px" font-style="normal" font-weight="bold" stroke="none" text-decoration="none" x="653.911376953125" y="186.5">carla</text></g></g><g transform="translate(-606,-142) scale(1,1)"><rect fill="#C0C0C0" height="44" opacity="0.2" stroke="none" width="53.80810546875" x="647" y="207"/></g><g transform="translate(-606,-142) scale(1,1)"><rect fill="#ffffff" height="44" stroke="none" width="53.80810546875" x="640" y="200"/></g><g transform="translate(-606,-142) scale(1,1)"><path d="M 640 200 L 693.80810546875 200 L 693.80810546875 244 L 640 244 L 640 200 Z Z" fill="none" stroke="#000000" stroke-miterlimit="10"/></g><g transform="translate(-606,-142) scale(1,1)"><path d="M 640 225 L 693.80810546875 225" fill="none" stroke="#000000" stroke-miterlimit="10"/></g><g transform="translate(-606,-142) scale(1,1)"><path d="M 640 235 L 693.80810546875 235" fill="none" stroke="#000000" stroke-miterlimit="10"/></g><g transform="translate(-606,-142) scale(1,1)"><g><path fill="none" stroke="none"/><text fill="#000000" font-family="Arial" font-size="13px" font-style="normal" font-weight="bold" stroke="none" text-decoration="none" x="645.944091796875" y="219.5">Vehicle</text></g></g><g transform="translate(-606,-142) scale(1,1)"><path d="M 816 216 L 694 216" fill="none" stroke="#000000" stroke-miterlimit="10"/></g><g transform="translate(-606,-142) scale(1,1)"><path d="M 704.1626748576241 211.790482243984 L 694 216 L 704.1626748576241 220.209517756016" fill="none" stroke="#000000" stroke-miterlimit="10"/></g><g transform="translate(-606,-142) scale(1,1)"><path d="M 994 216 L 1136 216" fill="none" stroke="#000000" stroke-miterlimit="10"/></g></g></svg>